# xmcd CD database file
#
# Track frame offsets:
#	150
#	15874
#	29590
#	49322
#	60665
#	78201
#	99288
#	115530
#	133185
#	148693
#	169127
#	188717
#	200858
#	215396
#	224867
#	236600
#	248458
#	263048
#	275644
#	288653
#	306393
#	314025
#	331005
#	343792
#
# Disc length: 4741 seconds
#
# Revision: 0
# Processed by: cddbd v1.5.2PL0 Copyright (c) Steve Scherf et al.
# Submitted via: CDex 1.70beta2
#
DISCID=72128318
DTITLE=Earl Hines - Four Classic Albums plus [CD2)
DYEAR=1900
DGENRE=Jazz
TTITLE0=Tea For Two
TTITLE1=Stealin' Apples
TTITLE2=Willow Weep For Me
TTITLE3=I Can't Believe That You're In Love With Me
TTITLE4=Rosetta
TTITLE5=Like When The Saints
TTITLE6=Satin Doll
TTITLE7=Manhattan
TTITLE8=You Can Depend On Me
TTITLE9=Love Me Or Leave Me
TTITLE10=The Song Is Ended
TTITLE11=Hollywood Hop
TTITLE12=If I had You
TTITLE13=I Can't Belive That You're In Love With Me
TTITLE14=Nice Work If You Can Get It
TTITLE15=Almost Like Being In Love
TTITLE16=The Web
TTITLE17=A Jumpin' Something
TTITLE18=I'm A Little Brownbird Looking For A Bluebird
TTITLE19=Humoresque
TTITLE20=Pennies From Heaven
TTITLE21=Do You Know What It Means To Miss New Orleans
TTITLE22=Gone With The Wind
TTITLE23=Muskrat Ramble
EXTD=
EXTT0=
EXTT1=
EXTT2=
EXTT3=
EXTT4=
EXTT5=
EXTT6=
EXTT7=
EXTT8=
EXTT9=
EXTT10=
EXTT11=
EXTT12=
EXTT13=
EXTT14=
EXTT15=
EXTT16=
EXTT17=
EXTT18=
EXTT19=
EXTT20=
EXTT21=
EXTT22=
EXTT23=
PLAYORDER=
